<svg aria-hidden="true" style="position:absolute;width:0;height:0" xmlns="http://www.w3.org/2000/svg" overflow="hidden">
    <defs>
        <symbol id="icon-logo" viewBox="0 0 34 32">
            <path
                d="M33.25 3.418a49.927 49.927 0 0 0-30.887-.834 3.08 3.08 0 0 0-2.251 3.82c.554 2.224 1.362 4.779 2.333 7.096.017.054.043.028.043-.026-.141-1.086.695-2.458 2.333-2.957a38.237 38.237 0 0 1 24.154.32 2.292 2.292 0 0 0 1.767-.123 2.27 2.27 0 0 0 1.145-1.352c.971-3.125 1.362-5.247 1.459-5.778.017-.099-.071-.136-.097-.164v-.001zM9.247 10.293c-1.193.249-2.842.641-4.079 1.051-2.474.853-2.359 3.863-1.042 4.824.097-.558.695-1.318 1.361-1.574 2.47-.971 5.122-1.551 7.803-1.791-1.362-.553-2.692-1.346-4.026-2.511l-.018.001zm19.695 6.027a29.388 29.388 0 0 0-22.845-.905c-1.178.445-1.916 1.878-1.178 3.238a52.93 52.93 0 0 0 4.374 6.668c-.233-.808.179-2.305 1.762-2.795 4.379-1.346 8.974-.775 12.028.461a2.319 2.319 0 0 0 2.768-.889 55.399 55.399 0 0 0 3.179-5.583c.043-.087 0-.151-.087-.196zm-7.096 10.791a13.717 13.717 0 0 1-3.472-2.501c-.472-.472-1.167-1.15-1.899-1.958-1.672 0-3.295.168-5.03.722-1.611.504-1.762 2.366-1.057 3.336 1.193 1.486 2.029 2.288 3.363 3.668a3.806 3.806 0 0 0 5.305.026c1.042-1.042 1.682-1.736 2.859-3.071.07-.071.043-.195-.071-.222h.001z" />
        </symbol>
    </defs>
</svg>